<?xml version="1.0" encoding="UTF-8"?>
<!DOCTYPE svg PUBLIC "-//W3C//DTD SVG 1.1//EN" "http://www.w3.org/Graphics/SVG/1.1/DTD/svg11.dtd">
<!-- Creator: CorelDRAW -->
<svg xmlns="http://www.w3.org/2000/svg" xml:space="preserve" width="12.5984in" height="12.5984in" version="1.1" style="shape-rendering:geometricPrecision; text-rendering:geometricPrecision; image-rendering:optimizeQuality; fill-rule:evenodd; clip-rule:evenodd"
viewBox="0 0 12685.41 12685.41"
 xmlns:xlink="http://www.w3.org/1999/xlink"
 xmlns:xodm="http://www.corel.com/coreldraw/odm/2003">
 <defs>
  <style type="text/css">
   <![CDATA[
    .fil0 {fill:#5C34A3}
    .fil1 {fill:#FEFEFE}
    .fil2 {fill:#FEFEFE;fill-rule:nonzero}
   ]]>
  </style>
 </defs>
 <g id="Layer_x0020_1">
  <metadata id="CorelCorpID_0Corel-Layer"/>
  <g id="_2403589817520">
   <circle class="fil0" cx="6342.7" cy="6342.71" r="6342.7"/>
   <path class="fil1" d="M2954.06 11525.28c715.49,483.76 1347.36,696.72 2177.1,891.36 236.79,55.55 661.6,113.05 916.91,110.06 0,-267.83 18.56,-2326.21 -10.96,-2400.31 -333.57,-26.86 -633.74,-89.1 -922.01,-188.12 -140.83,-48.37 -267.84,-101.09 -391.82,-158.28 -130.83,-60.34 -241.05,-134.47 -362.88,-193.44 -54,40.38 -135.23,175.02 -177.32,232.67 -67.75,92.8 -119.07,163.43 -177.53,243.79 -108.81,149.57 -239.3,325.64 -354.04,488.27 -80.62,114.26 -685.09,922.17 -697.44,974z"/>
   <path class="fil1" d="M362.64 7965.43c73.78,-5.46 1740.28,-552.12 1982.61,-634.87 86.65,-29.59 205.45,-59.8 289.43,-94.37 9.64,-36 -49.74,-351.96 -60.44,-426.52 -38.65,-269.5 -43.48,-653.22 -2.51,-920.04l71.47 -429.01 -57.97 -29.42c-26.51,-8.82 -44.68,-13.47 -72.07,-22.64l-1852.94 -602.49c-64.42,-21.71 -234.16,-84.45 -294.81,-86.59 -51.78,105.91 -133.77,609.65 -156.26,750.66 -128.49,805.56 -43.44,1740.13 153.49,2495.28z"/>
   <path class="fil1" d="M10040.95 5451.14c13.58,199.99 99.4,403.3 99.4,827.73 0,251.68 -12.01,321.67 -31.5,566.15 -6.97,87.41 -71.7,334.63 -62.04,389.01 179.57,68.45 370.26,119.81 562.66,184.51l1709.61 550.27c174.55,-718.43 218.27,-1020.17 218.27,-1762.13 0,-481.73 -100.07,-1065.57 -216.12,-1488.18 -141.1,16.02 -1966.27,648.26 -2280.29,732.64z"/>
   <path class="fil1" d="M2953.04 1164.83l1043.22 1446.47c55.18,73.42 319.74,453.07 364.13,483.66l367.23 -192.57c123.08,-58.57 262.03,-112.5 392.49,-158.82 373.2,-132.51 858.64,-170.03 923.77,-194.93l4.2 -2385.91c-478.66,-23.9 -1274.66,168.94 -1728.67,323.19 -282.21,95.87 -1222.4,507.57 -1366.36,678.92z"/>
   <path class="fil1" d="M559.34 4149.03l559.62 185.64c210.8,66.15 1637.04,546.1 1713.24,546.42 50.94,-89.34 116.84,-263.47 201.53,-409.33 74.41,-128.15 155.19,-248.11 242.2,-372.83 92.79,-132.99 308.57,-383.97 432.01,-493.56 27.13,-24.09 140.03,-124.04 159.44,-154.26 -17.39,-49.79 -295.08,-416.8 -345.51,-485.46 -114.06,-155.29 -233.3,-320.71 -347.57,-482.08l-703.08 -965.11c-84.96,24.8 -534,469.38 -595.5,530.94 -344.73,345.05 -717.23,868.97 -962.8,1310.01 -59.81,107.41 -356.46,689.23 -353.57,789.6z"/>
   <path class="fil1" d="M6642.66 12528.04c169.95,12.09 719.75,-69.5 898.58,-108.26 290.34,-62.94 543.74,-127.16 806.97,-215.96 311.96,-105.23 1128.82,-465.06 1380.21,-678.54 -9.29,-49.9 -288.95,-414.47 -342.87,-489.34l-1054.24 -1447.95 -381.28 197.61c-123.35,56.82 -273.11,117.51 -410.77,163.73 -251.1,84.29 -450.35,123.3 -710.62,158.77 -214.53,29.24 -191.59,-7.09 -190.45,104.63 1.98,192.46 -12.23,2205.09 4.48,2315.31z"/>
   <path class="fil1" d="M8815.84 9226.98c14.78,52.57 275.42,393.76 340.61,486.12 115.91,164.2 228.13,311.38 354.95,487.05 88.16,122.12 664.32,931.32 709.09,964.63 104.78,-52.2 508.25,-444.48 595.45,-536.17 357.59,-376.01 715.45,-856.12 960.7,-1312.95 51.42,-95.77 355.23,-686.69 351.71,-781.79l-2268.02 -738.05c-74.02,96.62 -276.47,726.17 -884.14,1281.86 -50.64,46.31 -95.09,97.76 -160.34,149.3z"/>
   <path class="fil1" d="M556.39 8541.09c17.68,130.36 273.07,634.81 353.67,778.31 196.62,350.11 427.33,700.9 689.72,1007.39 177.84,207.73 364.28,398.77 552.86,578.53 85.84,81.83 200.68,184.35 306.54,258.98 42.17,-22.79 144.17,-178.56 180.28,-228.61 260.35,-360.81 616.03,-868.07 875.3,-1205.84 63.06,-82.16 115.59,-159.95 177.59,-243.46 34.06,-45.88 53.44,-74.02 87.01,-118.8 21.7,-28.95 68.36,-89.75 88.06,-128.57 -21.03,-47.71 -112,-113.38 -151.15,-149.93 -250.52,-233.95 -507.5,-571.11 -679.31,-872.43 -82.69,-145.04 -161.24,-339.45 -204.75,-415.4 -57.2,-0.19 -1002.09,318.97 -1136.34,361.47 -138.48,43.83 -1096.27,343.55 -1139.48,378.37z"/>
   <path class="fil1" d="M6638.93 2552.49c167.15,28.17 328.49,36.25 484.72,71.92 727.12,166.01 1158.52,458.9 1207.64,469.29l1224.35 -1678.61c37.85,-53.21 156.98,-200.62 174.62,-250.26 -28.01,-32.27 -106.45,-75.73 -151.21,-103.88 -54.8,-34.47 -106.96,-65.19 -158.63,-94.77 -110.23,-63.12 -226.74,-123.56 -338.17,-180.29 -468,-238.21 -997.33,-409.81 -1522.09,-518.79 -206.62,-42.91 -715.96,-125.95 -918.96,-108.65l-2.28 2394.03z"/>
   <path class="fil1" d="M8814.37 3451.11c40.38,48.22 217.99,197.37 310.29,301.64 219.76,248.31 361.86,430.03 523.82,716.49l211.01 414.3 2270.23 -732.54c-7.39,-112.94 -289.27,-667.44 -351.07,-779.49 -130.19,-236.02 -284.76,-477.75 -443.99,-697.52 -202.38,-279.32 -547.37,-670.6 -803.11,-894.12 -88.31,-77.18 -213.19,-203 -311.06,-262.83 -41.47,33.17 -659.75,900.68 -705.56,963.62 -101.47,139.39 -230.28,308.48 -349.63,480.07l-350.92 490.39z"/>
   <path class="fil2" d="M3794.88 6643.39l-167.37 0 -117.46 -158.27 -262.36 0 0 158.27 -134.63 0 0 -292.9 460.27 0c23.79,0 44.19,-8.52 61.08,-25.4 16.89,-16.88 25.4,-37.29 25.4,-61.08 0,-24.08 -8.52,-44.63 -25.4,-61.52 -16.88,-16.88 -37.29,-25.4 -61.08,-25.4l-460.27 0 0 -135.07 460.27 0.44c30.39,0 58.88,5.87 85.59,17.62 54.47,24.08 93.82,63.43 118.19,117.9 11.75,28.63 17.77,57.41 17.77,86.03 0,28.34 -6.02,56.97 -17.77,85.59 -23.49,53 -61.52,91.76 -114.37,116.13l132.14 177.65z"/>
   <polygon id="_1" class="fil2" points="4618.09,6643.39 4464.08,6643.39 4222.71,6212.33 3981.05,6643.39 3827.04,6643.39 4163.84,6042.02 4281.29,6042.02 "/>
   <polygon id="_2" class="fil2" points="5441.74,6643.39 5307.11,6643.39 5307.11,6250.21 5100.97,6544.43 4990.86,6544.43 4785.32,6250.21 4785.32,6643.39 4650.25,6643.39 4650.25,6042.02 4802.93,6042.02 5045.92,6389.25 5289.05,6042.02 5441.74,6042.02 "/>
   <polygon id="_3" class="fil2" points="6264.5,6643.39 6110.49,6643.39 5869.12,6212.33 5627.46,6643.39 5473.45,6643.39 5810.25,6042.02 5927.7,6042.02 "/>
   <path id="_4" class="fil2" d="M6978.48 6643.39l-681.82 0 0 -134.63 681.82 0 0 134.63zm0 -464.53l-681.82 0 0 -134.63 681.82 0 0 134.63zm-55.06 232.27l-572.15 0 0 -134.63 572.15 0 0 134.63z"/>
   <path id="_5" class="fil2" d="M7509.22 6643.39l-290.4 0c-26.14,0 -50.95,-4.7 -74.44,-14.24 -47.27,-18.94 -82.22,-51.24 -104.97,-97.19 -10.87,-22.61 -16.3,-46.84 -16.3,-72.68l135.07 0c0,10.57 3.08,19.53 9.4,26.87 6.31,7.34 14.24,12.92 23.49,16.59 9.4,3.67 18.64,5.58 27.75,5.58l290.4 0c9.1,0 18.5,-1.91 27.9,-5.58 9.4,-3.67 17.32,-9.25 23.63,-16.59 6.31,-7.34 9.55,-16.3 9.55,-26.87 0,-10.28 -3.23,-19.09 -9.55,-26.43 -6.31,-7.34 -14.24,-12.92 -23.63,-16.74 -9.4,-3.96 -18.79,-5.87 -27.9,-5.87l-290.4 0c-26.14,0 -50.95,-4.55 -74.44,-13.8 -47.27,-18.94 -82.22,-51.24 -104.97,-97.19 -10.87,-22.61 -16.3,-46.84 -16.3,-72.68 0,-25.84 5.43,-50.06 16.3,-72.68 22.75,-45.95 57.7,-78.25 104.97,-97.19 23.49,-9.25 48.3,-13.8 74.44,-13.8l290.4 0c26.28,0 51.09,4.55 74.29,13.8 47.72,18.94 82.8,51.24 105.42,97.19 10.57,22.61 16,46.83 16,72.68l-134.63 0c0,-10.28 -3.23,-19.09 -9.55,-26.43 -6.31,-7.34 -14.24,-12.92 -23.63,-16.74 -9.4,-3.96 -18.79,-5.87 -27.9,-5.87l-290.4 0c-9.11,0 -18.35,1.91 -27.75,5.87 -9.25,3.82 -17.18,9.4 -23.49,16.74 -6.31,7.34 -9.4,16.15 -9.4,26.43 0,10.57 3.08,19.53 9.4,26.72 6.31,7.2 14.24,12.63 23.49,16.59 9.4,3.82 18.64,5.73 27.75,5.73l290.4 0c26.28,0 51.09,4.7 74.29,14.24 47.72,18.94 82.8,51.24 105.42,97.19 10.57,22.61 16,46.69 16,72.24 0,25.84 -5.43,50.06 -16,72.68 -22.61,45.95 -57.7,78.25 -105.42,97.19 -23.2,9.54 -48.01,14.24 -74.29,14.24z"/>
   <polygon id="_6" class="fil2" points="8093.26,6643.39 7958.63,6643.39 7958.63,6176.65 7739.73,6176.65 7739.73,6042.02 8311.88,6042.02 8311.88,6176.65 8093.26,6176.65 "/>
   <polygon id="_7" class="fil2" points="8720.03,6643.39 8585.4,6643.39 8585.4,6176.65 8366.5,6176.65 8366.5,6042.02 8938.64,6042.02 8938.64,6176.65 8720.03,6176.65 "/>
   <polygon id="_8" class="fil2" points="9572.16,6643.39 9418.15,6643.39 9176.78,6212.33 8935.12,6643.39 8781.11,6643.39 9117.91,6042.02 9235.36,6042.02 "/>
  </g>
 </g>
</svg>
